<svg viewBox="0 0 12 12" xmlns="http://www.w3.org/2000/svg">
<path d="M1 12C0.733333 12 0.5 11.91 0.3 11.73C0.1 11.55 0 11.34 0 11.1V1.8C0 1.56 0.1 1.35 0.3 1.17C0.5 0.99 0.733333 0.9 1 0.9H2.08333V0H3.16667V0.9H8.83333V0H9.91667V0.9H11C11.2667 0.9 11.5 0.99 11.7 1.17C11.9 1.35 12 1.56 12 1.8V11.1C12 11.34 11.9 11.55 11.7 11.73C11.5 11.91 11.2667 12 11 12H1ZM1 11.1H11V4.65H1V11.1ZM1 3.75H11V1.8H1V3.75ZM6 7.2C5.81111 7.2 5.65278 7.1425 5.525 7.0275C5.39722 6.9125 5.33333 6.77 5.33333 6.6C5.33333 6.43 5.39722 6.2875 5.525 6.1725C5.65278 6.0575 5.81111 6 6 6C6.18889 6 6.34722 6.0575 6.475 6.1725C6.60278 6.2875 6.66667 6.43 6.66667 6.6C6.66667 6.77 6.60278 6.9125 6.475 7.0275C6.34722 7.1425 6.18889 7.2 6 7.2ZM3.33333 7.2C3.14444 7.2 2.98611 7.1425 2.85833 7.0275C2.73056 6.9125 2.66667 6.77 2.66667 6.6C2.66667 6.43 2.73056 6.2875 2.85833 6.1725C2.98611 6.0575 3.14444 6 3.33333 6C3.52222 6 3.68056 6.0575 3.80833 6.1725C3.93611 6.2875 4 6.43 4 6.6C4 6.77 3.93611 6.9125 3.80833 7.0275C3.68056 7.1425 3.52222 7.2 3.33333 7.2ZM8.66667 7.2C8.47778 7.2 8.31944 7.1425 8.19167 7.0275C8.06389 6.9125 8 6.77 8 6.6C8 6.43 8.06389 6.2875 8.19167 6.1725C8.31944 6.0575 8.47778 6 8.66667 6C8.85556 6 9.01389 6.0575 9.14167 6.1725C9.26944 6.2875 9.33333 6.43 9.33333 6.6C9.33333 6.77 9.26944 6.9125 9.14167 7.0275C9.01389 7.1425 8.85556 7.2 8.66667 7.2ZM6 9.6C5.81111 9.6 5.65278 9.5425 5.525 9.4275C5.39722 9.3125 5.33333 9.17 5.33333 9C5.33333 8.83 5.39722 8.6875 5.525 8.5725C5.65278 8.4575 5.81111 8.4 6 8.4C6.18889 8.4 6.34722 8.4575 6.475 8.5725C6.60278 8.6875 6.66667 8.83 6.66667 9C6.66667 9.17 6.60278 9.3125 6.475 9.4275C6.34722 9.5425 6.18889 9.6 6 9.6ZM3.33333 9.6C3.14444 9.6 2.98611 9.5425 2.85833 9.4275C2.73056 9.3125 2.66667 9.17 2.66667 9C2.66667 8.83 2.73056 8.6875 2.85833 8.5725C2.98611 8.4575 3.14444 8.4 3.33333 8.4C3.52222 8.4 3.68056 8.4575 3.80833 8.5725C3.93611 8.6875 4 8.83 4 9C4 9.17 3.93611 9.3125 3.80833 9.4275C3.68056 9.5425 3.52222 9.6 3.33333 9.6ZM8.66667 9.6C8.47778 9.6 8.31944 9.5425 8.19167 9.4275C8.06389 9.3125 8 9.17 8 9C8 8.83 8.06389 8.6875 8.19167 8.5725C8.31944 8.4575 8.47778 8.4 8.66667 8.4C8.85556 8.4 9.01389 8.4575 9.14167 8.5725C9.26944 8.6875 9.33333 8.83 9.33333 9C9.33333 9.17 9.26944 9.3125 9.14167 9.4275C9.01389 9.5425 8.85556 9.6 8.66667 9.6Z" />
</svg>
