<svg viewBox="0 0 40 40" xmlns="http://www.w3.org/2000/svg">
<path d="M14 27H26V24H14V27ZM13 13C11.9333 13 10.9417 13.3 10.025 13.9C9.10833 14.5 8.35 15.2667 7.75 16.2L10.25 17.85C10.5833 17.35 10.9833 16.925 11.45 16.575C11.9167 16.225 12.4333 16.05 13 16.05C13.5667 16.05 14.0833 16.225 14.55 16.575C15.0167 16.925 15.4167 17.3333 15.75 17.8L18.25 16.15C17.65 15.25 16.8917 14.5 15.975 13.9C15.0583 13.3 14.0667 13 13 13ZM27 13C25.9333 13 24.9417 13.3 24.025 13.9C23.1083 14.5 22.35 15.2667 21.75 16.2L24.25 17.85C24.5833 17.3833 24.9833 16.975 25.45 16.625C25.9167 16.275 26.4333 16.1 27 16.1C27.5667 16.1 28.0917 16.2667 28.575 16.6C29.0583 16.9333 29.45 17.35 29.75 17.85L32.25 16.2C31.65 15.2667 30.8917 14.5 29.975 13.9C29.0583 13.3 28.0667 13 27 13ZM20 40C17.2333 40 14.6333 39.475 12.2 38.425C9.76667 37.375 7.65 35.95 5.85 34.15C4.05 32.35 2.625 30.2333 1.575 27.8C0.525 25.3667 0 22.7667 0 20C0 17.2333 0.525 14.6333 1.575 12.2C2.625 9.76667 4.05 7.65 5.85 5.85C7.65 4.05 9.76667 2.625 12.2 1.575C14.6333 0.525 17.2333 0 20 0C22.7667 0 25.3667 0.525 27.8 1.575C30.2333 2.625 32.35 4.05 34.15 5.85C35.95 7.65 37.375 9.76667 38.425 12.2C39.475 14.6333 40 17.2333 40 20C40 22.7667 39.475 25.3667 38.425 27.8C37.375 30.2333 35.95 32.35 34.15 34.15C32.35 35.95 30.2333 37.375 27.8 38.425C25.3667 39.475 22.7667 40 20 40ZM20 37C24.7458 37 28.7656 35.3531 32.0594 32.0594C35.3531 28.7656 37 24.7458 37 20C37 15.2542 35.3531 11.2344 32.0594 7.9406C28.7656 4.64687 24.7458 3 20 3C15.2542 3 11.2344 4.64687 7.9406 7.9406C4.64687 11.2344 3 15.2542 3 20C3 24.7458 4.64687 28.7656 7.9406 32.0594C11.2344 35.3531 15.2542 37 20 37Z" />
</svg>
