<svg viewBox="0 0 25 25" xmlns="http://www.w3.org/2000/svg">
<mask id="mask0_56_229" style="mask-type:alpha" maskUnits="userSpaceOnUse" x="0" y="0" width="25" height="25">
<rect x="0.733154" y="0.170654" width="24" height="24" />
</mask>
<g mask="url(#mask0_56_229)">
<path d="M12.7333 22.1707C11.4833 22.1707 10.3124 21.9332 9.22075 21.4582C8.12909 20.9832 7.17909 20.3415 6.37075 19.5332C5.56242 18.7248 4.92075 17.7748 4.44575 16.6832C3.97075 15.5915 3.73325 14.4207 3.73325 13.1707C3.73325 11.9207 3.97075 10.7498 4.44575 9.65816C4.92075 8.56649 5.56242 7.61649 6.37075 6.80816C7.17909 5.99983 8.12909 5.35816 9.22075 4.88316C10.3124 4.40816 11.4833 4.17066 12.7333 4.17066C13.9833 4.17066 15.1541 4.40816 16.2458 4.88316C17.3374 5.35816 18.2874 5.99983 19.0958 6.80816C19.9041 7.61649 20.5458 8.56649 21.0208 9.65816C21.4958 10.7498 21.7333 11.9207 21.7333 13.1707C21.7333 14.4207 21.4958 15.5915 21.0208 16.6832C20.5458 17.7748 19.9041 18.7248 19.0958 19.5332C18.2874 20.3415 17.3374 20.9832 16.2458 21.4582C15.1541 21.9332 13.9833 22.1707 12.7333 22.1707ZM15.5333 17.3707L16.9333 15.9707L13.7333 12.7707V8.17066H11.7333V13.5707L15.5333 17.3707ZM6.33325 2.52066L7.73325 3.92066L3.48325 8.17066L2.08325 6.77066L6.33325 2.52066ZM19.1333 2.52066L23.3833 6.77066L21.9833 8.17066L17.7333 3.92066L19.1333 2.52066ZM12.7333 20.1707C14.6833 20.1707 16.3374 19.4915 17.6958 18.1332C19.0541 16.7748 19.7333 15.1207 19.7333 13.1707C19.7333 11.2207 19.0541 9.56649 17.6958 8.20816C16.3374 6.84983 14.6833 6.17066 12.7333 6.17066C10.7833 6.17066 9.12909 6.84983 7.77075 8.20816C6.41242 9.56649 5.73325 11.2207 5.73325 13.1707C5.73325 15.1207 6.41242 16.7748 7.77075 18.1332C9.12909 19.4915 10.7833 20.1707 12.7333 20.1707Z" />
</g>
</svg>
