<svg viewBox="0 0 32 32" xmlns="http://www.w3.org/2000/svg">
<mask id="mask0_56_197" style="mask-type:alpha" maskUnits="userSpaceOnUse" x="0" y="0" width="32" height="32">
<rect width="32" height="32" />
</mask>
<g mask="url(#mask0_56_197)">
<path d="M16.0001 29.3333C14.1556 29.3333 12.4223 28.9833 10.8001 28.2833C9.17786 27.5833 7.76675 26.6333 6.56675 25.4333C5.36675 24.2333 4.41675 22.8222 3.71675 21.2C3.01675 19.5778 2.66675 17.8444 2.66675 16C2.66675 14.3333 2.98897 12.7 3.63341 11.1C4.27786 9.5 5.17786 8.07222 6.33341 6.81666C7.48897 5.56111 8.87786 4.55 10.5001 3.78333C12.1223 3.01666 13.9001 2.63333 15.8334 2.63333C16.3001 2.63333 16.7779 2.65555 17.2667 2.7C17.7556 2.74444 18.2556 2.82222 18.7667 2.93333C18.5667 3.93333 18.6334 4.87778 18.9667 5.76666C19.3001 6.65555 19.8001 7.39444 20.4667 7.98333C21.1334 8.57222 21.9279 8.97778 22.8501 9.2C23.7723 9.42222 24.7223 9.36666 25.7001 9.03333C25.1223 10.3444 25.2056 11.6 25.9501 12.8C26.6945 14 27.8001 14.6222 29.2667 14.6667C29.289 14.9111 29.3056 15.1389 29.3167 15.35C29.3279 15.5611 29.3334 15.7889 29.3334 16.0333C29.3334 17.8556 28.9834 19.5722 28.2834 21.1833C27.5834 22.7944 26.6334 24.2056 25.4334 25.4167C24.2334 26.6278 22.8223 27.5833 21.2001 28.2833C19.5779 28.9833 17.8445 29.3333 16.0001 29.3333ZM14.0001 13.3333C14.5556 13.3333 15.0279 13.1389 15.4167 12.75C15.8056 12.3611 16.0001 11.8889 16.0001 11.3333C16.0001 10.7778 15.8056 10.3056 15.4167 9.91666C15.0279 9.52778 14.5556 9.33333 14.0001 9.33333C13.4445 9.33333 12.9723 9.52778 12.5834 9.91666C12.1945 10.3056 12.0001 10.7778 12.0001 11.3333C12.0001 11.8889 12.1945 12.3611 12.5834 12.75C12.9723 13.1389 13.4445 13.3333 14.0001 13.3333ZM11.3334 20C11.889 20 12.3612 19.8056 12.7501 19.4167C13.139 19.0278 13.3334 18.5556 13.3334 18C13.3334 17.4444 13.139 16.9722 12.7501 16.5833C12.3612 16.1944 11.889 16 11.3334 16C10.7779 16 10.3056 16.1944 9.91675 16.5833C9.52786 16.9722 9.33341 17.4444 9.33341 18C9.33341 18.5556 9.52786 19.0278 9.91675 19.4167C10.3056 19.8056 10.7779 20 11.3334 20ZM20.0001 21.3333C20.3779 21.3333 20.6945 21.2056 20.9501 20.95C21.2056 20.6944 21.3334 20.3778 21.3334 20C21.3334 19.6222 21.2056 19.3056 20.9501 19.05C20.6945 18.7944 20.3779 18.6667 20.0001 18.6667C19.6223 18.6667 19.3056 18.7944 19.0501 19.05C18.7945 19.3056 18.6667 19.6222 18.6667 20C18.6667 20.3778 18.7945 20.6944 19.0501 20.95C19.3056 21.2056 19.6223 21.3333 20.0001 21.3333ZM16.0001 26.6667C18.7112 26.6667 21.1167 25.7333 23.2167 23.8667C25.3167 22 26.4667 19.6222 26.6667 16.7333C25.5556 16.2444 24.6834 15.5778 24.0501 14.7333C23.4167 13.8889 22.989 12.9444 22.7667 11.9C21.0556 11.6556 19.589 10.9222 18.3667 9.7C17.1445 8.47778 16.389 7.01111 16.1001 5.3C14.3223 5.25555 12.7612 5.57778 11.4167 6.26666C10.0723 6.95555 8.95008 7.83889 8.05008 8.91666C7.15008 9.99444 6.4723 11.1667 6.01675 12.4333C5.56119 13.7 5.33341 14.8889 5.33341 16C5.33341 18.9556 6.3723 21.4722 8.45008 23.55C10.5279 25.6278 13.0445 26.6667 16.0001 26.6667Z" />
</g>
</svg>
