<svg viewBox="0 0 40 40" xmlns="http://www.w3.org/2000/svg">
<path d="M20 23.15C17.7667 23.15 15.7417 23.775 13.925 25.025C12.1083 26.275 10.7667 27.9333 9.9 30H30.1C29.2667 27.9 27.9333 26.2333 26.1 25C24.2667 23.7667 22.2333 23.15 20 23.15ZM10.85 19.55L13.35 17.3L15.6 19.55L17.15 17.75L14.9 15.5L17.15 13.25L15.6 11.45L13.35 13.7L10.85 11.45L9.3 13.25L11.55 15.5L9.3 17.75L10.85 19.55ZM24.45 19.55L26.65 17.3L29.2 19.55L30.75 17.75L28.5 15.5L30.75 13.25L29.2 11.45L26.65 13.7L24.45 11.45L22.9 13.25L25.1 15.5L22.9 17.75L24.45 19.55ZM20 40C17.2333 40 14.6333 39.475 12.2 38.425C9.76667 37.375 7.65 35.95 5.85 34.15C4.05 32.35 2.625 30.2333 1.575 27.8C0.525 25.3667 0 22.7667 0 20C0 17.2333 0.525 14.6333 1.575 12.2C2.625 9.76667 4.05 7.65 5.85 5.85C7.65 4.05 9.76667 2.625 12.2 1.575C14.6333 0.525 17.2333 0 20 0C22.7667 0 25.3667 0.525 27.8 1.575C30.2333 2.625 32.35 4.05 34.15 5.85C35.95 7.65 37.375 9.76667 38.425 12.2C39.475 14.6333 40 17.2333 40 20C40 22.7667 39.475 25.3667 38.425 27.8C37.375 30.2333 35.95 32.35 34.15 34.15C32.35 35.95 30.2333 37.375 27.8 38.425C25.3667 39.475 22.7667 40 20 40ZM20 37C24.7333 37 28.75 35.35 32.05 32.05C35.35 28.75 37 24.7333 37 20C37 15.2667 35.35 11.25 32.05 7.95C28.75 4.65 24.7333 3 20 3C15.2667 3 11.25 4.65 7.95 7.95C4.65 11.25 3 15.2667 3 20C3 24.7333 4.65 28.75 7.95 32.05C11.25 35.35 15.2667 37 20 37Z" />
</svg>
