<svg viewBox="0 0 40 40" xmlns="http://www.w3.org/2000/svg">
<mask id="mask0_6_519" style="mask-type:alpha" maskUnits="userSpaceOnUse" x="0" y="0" width="40" height="40">
<rect width="40" height="40" />
</mask>
<g mask="url(#mask0_6_519)">
<path d="M18.6667 37.6008C16.3611 37.6008 14.1944 37.1683 12.1667 36.3032C10.1389 35.4382 8.375 34.2643 6.875 32.7814C5.375 31.2985 4.1875 29.5547 3.3125 27.5501C2.4375 25.5454 2 23.4035 2 21.1242C2 18.845 2.4375 16.703 3.3125 14.6984C4.1875 12.6937 5.375 10.9499 6.875 9.46705C8.375 7.98416 10.1389 6.8102 12.1667 5.94518C14.1944 5.08017 16.3611 4.64766 18.6667 4.64766C19.8611 4.64766 21.0139 4.76436 22.125 4.99778C23.2361 5.2312 24.3056 5.5676 25.3333 6.00697V9.7142C24.3611 9.16498 23.3125 8.73247 22.1875 8.41667C21.0625 8.10087 19.8889 7.94297 18.6667 7.94297C14.9722 7.94297 11.8264 9.22677 9.22917 11.7944C6.63195 14.362 5.33333 17.4719 5.33333 21.1242C5.33333 24.7765 6.63195 27.8865 9.22917 30.4541C11.8264 33.0217 14.9722 34.3055 18.6667 34.3055C22.3611 34.3055 25.5069 33.0217 28.1042 30.4541C30.7014 27.8865 32 24.7765 32 21.1242C32 20.2455 31.9097 19.3942 31.7292 18.5703C31.5486 17.7465 31.3056 16.9501 31 16.1812H34.5833C34.8333 16.9776 35.0208 17.7808 35.1458 18.5909C35.2708 19.401 35.3333 20.2455 35.3333 21.1242C35.3333 23.4035 34.8958 25.5454 34.0208 27.5501C33.1458 29.5547 31.9583 31.2985 30.4583 32.7814C28.9583 34.2643 27.1944 35.4382 25.1667 36.3032C23.1389 37.1683 20.9722 37.6008 18.6667 37.6008ZM32 12.8859V9.59062H28.6667V6.29531H32V3H35.3333V6.29531H38.6667V9.59062H35.3333V12.8859H32ZM24.5 19.4766C25.1944 19.4766 25.7847 19.2363 26.2708 18.7557C26.7569 18.2751 27 17.6916 27 17.0051C27 16.3185 26.7569 15.735 26.2708 15.2544C25.7847 14.7739 25.1944 14.5336 24.5 14.5336C23.8056 14.5336 23.2153 14.7739 22.7292 15.2544C22.2431 15.735 22 16.3185 22 17.0051C22 17.6916 22.2431 18.2751 22.7292 18.7557C23.2153 19.2363 23.8056 19.4766 24.5 19.4766ZM12.8333 19.4766C13.5278 19.4766 14.1181 19.2363 14.6042 18.7557C15.0903 18.2751 15.3333 17.6916 15.3333 17.0051C15.3333 16.3185 15.0903 15.735 14.6042 15.2544C14.1181 14.7739 13.5278 14.5336 12.8333 14.5336C12.1389 14.5336 11.5486 14.7739 11.0625 15.2544C10.5764 15.735 10.3333 16.3185 10.3333 17.0051C10.3333 17.6916 10.5764 18.2751 11.0625 18.7557C11.5486 19.2363 12.1389 19.4766 12.8333 19.4766ZM18.6667 30.1863C20.5556 30.1863 22.2708 29.6577 23.8125 28.6004C25.3542 27.5432 26.4722 26.1496 27.1667 24.4195H10.1667C10.8611 26.1496 11.9792 27.5432 13.5208 28.6004C15.0625 29.6577 16.7778 30.1863 18.6667 30.1863Z" />
</g>
</svg>
