<svg viewBox="0 0 40 40" xmlns="http://www.w3.org/2000/svg">
<path d="M14.8333 35H7.5C6.83333 35 6.25 34.75 5.75 34.25C5.25 33.75 5 33.1667 5 32.5V25.1667C6.22222 25.0278 7.27083 24.5486 8.14583 23.7292C9.02083 22.9097 9.45833 21.9028 9.45833 20.7083C9.45833 19.5139 9.02083 18.5069 8.14583 17.6875C7.27083 16.8681 6.22222 16.3889 5 16.25V8.91667C5 8.25 5.25 7.66667 5.75 7.16667C6.25 6.66667 6.83333 6.41667 7.5 6.41667H14.875C15.1806 5.30556 15.7292 4.375 16.5208 3.625C17.3125 2.875 18.2639 2.5 19.375 2.5C20.4861 2.5 21.4375 2.875 22.2292 3.625C23.0208 4.375 23.5694 5.30556 23.875 6.41667H31.0833C31.75 6.41667 32.3333 6.66667 32.8333 7.16667C33.3333 7.66667 33.5833 8.25 33.5833 8.91667V16.125C34.6944 16.4306 35.6042 17.0069 36.3125 17.8542C37.0208 18.7014 37.375 19.6806 37.375 20.7917C37.375 21.9028 37.0208 22.8333 36.3125 23.5833C35.6042 24.3333 34.6944 24.8611 33.5833 25.1667V32.5C33.5833 33.1667 33.3333 33.75 32.8333 34.25C32.3333 34.75 31.75 35 31.0833 35H23.75C23.6111 33.6667 23.1181 32.5903 22.2708 31.7708C21.4236 30.9514 20.4306 30.5417 19.2917 30.5417C18.1528 30.5417 17.1597 30.9514 16.3125 31.7708C15.4653 32.5903 14.9722 33.6667 14.8333 35ZM7.5 32.5H12.9167C13.6111 30.8056 14.5818 29.6389 15.8287 29C17.0756 28.3611 18.2283 28.0417 19.287 28.0417C20.3457 28.0417 21.5 28.3611 22.75 29C24 29.6389 24.9722 30.8056 25.6667 32.5H31.0833V22.7083H32.9583C33.5139 22.7083 33.9722 22.5278 34.3333 22.1667C34.6944 21.8056 34.875 21.3472 34.875 20.7917C34.875 20.2361 34.6944 19.7778 34.3333 19.4167C33.9722 19.0556 33.5139 18.875 32.9583 18.875H31.0833V8.91667H21.2917V6.91667C21.2917 6.36111 21.1111 5.90278 20.75 5.54167C20.3889 5.18056 19.9306 5 19.375 5C18.8194 5 18.3611 5.18056 18 5.54167C17.6389 5.90278 17.4583 6.36111 17.4583 6.91667V8.91667H7.5V14.3333C8.8375 14.8282 9.91493 15.6572 10.7323 16.8202C11.5497 17.9833 11.9583 19.2824 11.9583 20.7176C11.9583 22.1281 11.5486 23.4167 10.7292 24.5833C9.90972 25.75 8.83333 26.5833 7.5 27.0833V32.5Z" />
</svg>
