<svg viewBox="0 0 40 40" xmlns="http://www.w3.org/2000/svg">
<path d="M15.55 32C16.1167 32 16.6583 31.9 17.175 31.7C17.6917 31.5 18.2 31.2667 18.7 31C18.9 30.8667 19.1083 30.75 19.325 30.65C19.5417 30.55 19.7667 30.5 20 30.5C20.2667 30.5 20.7 30.6667 21.3 31C21.8 31.2667 22.3083 31.5 22.825 31.7C23.3417 31.9 23.8833 32 24.45 32C26.1167 32 27.4583 31.4083 28.475 30.225C29.4917 29.0417 30 27.4667 30 25.5C30 23.1 29.175 21.25 27.525 19.95C25.875 18.65 23.5 18 20.4 18H19.6C16.5 18 14.125 18.65 12.475 19.95C10.825 21.25 10 23.1 10 25.5C10 27.4667 10.5083 29.0417 11.525 30.225C12.5417 31.4083 13.8833 32 15.55 32ZM15.5 29C14.7 29 14.075 28.6917 13.625 28.075C13.175 27.4583 12.95 26.6 12.95 25.5C12.95 23.9667 13.4917 22.8333 14.575 22.1C15.6583 21.3667 17.3333 21 19.6 21H20.35C22.6167 21 24.2833 21.3667 25.35 22.1C26.4167 22.8333 26.95 23.9667 26.95 25.5C26.95 26.6 26.7333 27.4583 26.3 28.075C25.8667 28.6917 25.25 29 24.45 29C24.05 29 23.4833 28.8 22.75 28.4C22.3167 28.1333 21.875 27.9167 21.425 27.75C20.975 27.5833 20.5 27.5 20 27.5C19.5 27.5 19.0167 27.5833 18.55 27.75C18.0833 27.9167 17.6333 28.1333 17.2 28.4C16.9333 28.5667 16.6583 28.7083 16.375 28.825C16.0917 28.9417 15.8 29 15.5 29ZM8.55 17.4C10.55 16.6 12.15 15.7167 13.35 14.75C14.55 13.7833 15.6833 12.4667 16.75 10.8L14.25 9.2C13.3833 10.5667 12.475 11.6167 11.525 12.35C10.575 13.0833 9.2 13.8333 7.4 14.6L8.55 17.4ZM31.4 17.4L32.55 14.6C30.7833 13.8667 29.4333 13.1333 28.5 12.4C27.5667 11.6667 26.65 10.6 25.75 9.2L23.25 10.8C24.3167 12.4667 25.45 13.775 26.65 14.725C27.85 15.675 29.4333 16.5667 31.4 17.4ZM20 40C17.2333 40 14.6333 39.475 12.2 38.425C9.76667 37.375 7.65 35.95 5.85 34.15C4.05 32.35 2.625 30.2333 1.575 27.8C0.525 25.3667 0 22.7667 0 20C0 17.2333 0.525 14.6333 1.575 12.2C2.625 9.76667 4.05 7.65 5.85 5.85C7.65 4.05 9.76667 2.625 12.2 1.575C14.6333 0.525 17.2333 0 20 0C22.7667 0 25.3667 0.525 27.8 1.575C30.2333 2.625 32.35 4.05 34.15 5.85C35.95 7.65 37.375 9.76667 38.425 12.2C39.475 14.6333 40 17.2333 40 20C40 22.7667 39.475 25.3667 38.425 27.8C37.375 30.2333 35.95 32.35 34.15 34.15C32.35 35.95 30.2333 37.375 27.8 38.425C25.3667 39.475 22.7667 40 20 40ZM20 37C24.7458 37 28.7656 35.3531 32.0594 32.0594C35.3531 28.7656 37 24.7458 37 20C37 15.2542 35.3531 11.2344 32.0594 7.9406C28.7656 4.64687 24.7458 3 20 3C15.2542 3 11.2344 4.64687 7.9406 7.9406C4.64687 11.2344 3 15.2542 3 20C3 24.7458 4.64687 28.7656 7.9406 32.0594C11.2344 35.3531 15.2542 37 20 37Z" />
</svg>
