<svg viewBox="0 0 40 40" xmlns="http://www.w3.org/2000/svg">
<path d="M13 20C14.4 20 15.5667 19.4917 16.5 18.475C17.4333 17.4583 18.0833 16.25 18.45 14.85L15.55 14.15C15.3833 14.8833 15.0917 15.5417 14.675 16.125C14.2583 16.7083 13.7 17 13 17C12.3 17 11.7417 16.7083 11.325 16.125C10.9083 15.5417 10.6167 14.8833 10.45 14.15L7.55 14.85C7.91667 16.25 8.56667 17.4583 9.5 18.475C10.4333 19.4917 11.6 20 13 20ZM20 31C21.3 31 22.55 30.7083 23.75 30.125C24.95 29.5417 26.0667 28.6667 27.1 27.5L24.9 25.5C24.1667 26.3 23.3833 26.9083 22.55 27.325C21.7167 27.7417 20.8667 27.95 20 27.95C19.1333 27.95 18.2833 27.7417 17.45 27.325C16.6167 26.9083 15.8333 26.3 15.1 25.5L12.9 27.5C13.9667 28.6667 15.0917 29.5417 16.275 30.125C17.4583 30.7083 18.7 31 20 31ZM27 20C28.4 20 29.5667 19.4917 30.5 18.475C31.4333 17.4583 32.0833 16.25 32.45 14.85L29.55 14.15C29.3833 14.8833 29.0917 15.5417 28.675 16.125C28.2583 16.7083 27.7 17 27 17C26.3 17 25.7417 16.7083 25.325 16.125C24.9083 15.5417 24.6167 14.8833 24.45 14.15L21.55 14.85C21.9167 16.25 22.5667 17.4583 23.5 18.475C24.4333 19.4917 25.6 20 27 20ZM20 40C17.2333 40 14.6333 39.475 12.2 38.425C9.76667 37.375 7.65 35.95 5.85 34.15C4.05 32.35 2.625 30.2333 1.575 27.8C0.525 25.3667 0 22.7667 0 20C0 17.2333 0.525 14.6333 1.575 12.2C2.625 9.76667 4.05 7.65 5.85 5.85C7.65 4.05 9.76667 2.625 12.2 1.575C14.6333 0.525 17.2333 0 20 0C22.7667 0 25.3667 0.525 27.8 1.575C30.2333 2.625 32.35 4.05 34.15 5.85C35.95 7.65 37.375 9.76667 38.425 12.2C39.475 14.6333 40 17.2333 40 20C40 22.7667 39.475 25.3667 38.425 27.8C37.375 30.2333 35.95 32.35 34.15 34.15C32.35 35.95 30.2333 37.375 27.8 38.425C25.3667 39.475 22.7667 40 20 40ZM20 37C24.7458 37 28.7656 35.3531 32.0594 32.0594C35.3531 28.7656 37 24.7458 37 20C37 15.2542 35.3531 11.2344 32.0594 7.9406C28.7656 4.64687 24.7458 3 20 3C15.2542 3 11.2344 4.64687 7.9406 7.9406C4.64687 11.2344 3 15.2542 3 20C3 24.7458 4.64687 28.7656 7.9406 32.0594C11.2344 35.3531 15.2542 37 20 37Z" />
</svg>
