<svg viewBox="0 0 40 40" xmlns="http://www.w3.org/2000/svg">
<path d="M20 40C17.2333 40 14.6333 39.475 12.2 38.425C9.76667 37.375 7.65 35.95 5.85 34.15C4.05 32.35 2.625 30.2333 1.575 27.8C0.525 25.3667 0 22.7667 0 20C0 17.2333 0.525 14.6333 1.575 12.2C2.625 9.76667 4.05 7.65 5.85 5.85C7.65 4.05 9.76667 2.625 12.2 1.575C14.6333 0.525 17.2333 0 20 0H20.4C20.7 0 20.9583 0.108333 21.175 0.325C21.3917 0.541667 21.5 0.8 21.5 1.1V16.3C22.2333 16.6 22.8333 17.0833 23.3 17.75C23.7667 18.4167 24 19.1667 24 20C24 21.1 23.6083 22.0417 22.825 22.825C22.0417 23.6083 21.1 24 20 24C18.9 24 17.9583 23.6083 17.175 22.825C16.3917 22.0417 16 21.1 16 20C16 19.1667 16.2333 18.4167 16.7 17.75C17.1667 17.0833 17.7667 16.6 18.5 16.3V11.1C16.3333 11.4667 14.5417 12.475 13.125 14.125C11.7083 15.775 11 17.7333 11 20C11 22.5 11.875 24.625 13.625 26.375C15.375 28.125 17.5 29 20 29C22.5 29 24.625 28.125 26.375 26.375C28.125 24.625 29 22.5 29 20C29 18.9333 28.8333 17.925 28.5 16.975C28.1667 16.025 27.6833 15.1667 27.05 14.4C26.7833 14.0333 26.65 13.65 26.65 13.25C26.65 12.85 26.8 12.5 27.1 12.2C27.4 11.9 27.7583 11.7583 28.175 11.775C28.5917 11.7917 28.9333 11.95 29.2 12.25C30.0667 13.3167 30.75 14.5 31.25 15.8C31.75 17.1 32 18.5 32 20C32 23.3333 30.8333 26.1667 28.5 28.5C26.1667 30.8333 23.3333 32 20 32C16.6667 32 13.8333 30.8333 11.5 28.5C9.16667 26.1667 8 23.3333 8 20C8 16.9 9 14.225 11 11.975C13 9.725 15.5 8.41667 18.5 8.05V3.05C14.1333 3.41667 10.4583 5.21667 7.475 8.45C4.49167 11.6833 3 15.5333 3 20C3 24.7333 4.65 28.75 7.95 32.05C11.25 35.35 15.2667 37 20 37C24.7333 37 28.75 35.35 32.05 32.05C35.35 28.75 37 24.7333 37 20C37 17.8 36.625 15.75 35.875 13.85C35.125 11.95 34.0667 10.25 32.7 8.75C32.4333 8.41667 32.3 8.04167 32.3 7.625C32.3 7.20833 32.45 6.85 32.75 6.55C33.05 6.25 33.4083 6.10833 33.825 6.125C34.2417 6.14167 34.5833 6.3 34.85 6.6C36.45 8.4 37.7083 10.4333 38.625 12.7C39.5417 14.9667 40 17.4 40 20C40 22.7667 39.475 25.3667 38.425 27.8C37.375 30.2333 35.95 32.35 34.15 34.15C32.35 35.95 30.2333 37.375 27.8 38.425C25.3667 39.475 22.7667 40 20 40Z" />
</svg>
