<svg viewBox="0 0 40 40" xmlns="http://www.w3.org/2000/svg">
<path d="M18.8749 28.3334H21.3749V18.3334H18.8749V28.3334ZM19.9992 15.25C20.3886 15.25 20.7152 15.1223 20.9791 14.8667C21.243 14.6112 21.3749 14.2945 21.3749 13.9167C21.3749 13.5153 21.2432 13.1789 20.9798 12.9073C20.7164 12.6358 20.39 12.5 20.0007 12.5C19.6113 12.5 19.2846 12.6358 19.0208 12.9073C18.7569 13.1789 18.6249 13.5153 18.6249 13.9167C18.6249 14.2945 18.7566 14.6112 19.02 14.8667C19.2834 15.1223 19.6098 15.25 19.9992 15.25ZM20.011 36.6667C17.7128 36.6667 15.5531 36.2292 13.5318 35.3542C11.5106 34.4792 9.74297 33.2848 8.22908 31.7709C6.7152 30.257 5.52075 28.4884 4.64575 26.465C3.77075 24.4417 3.33325 22.2797 3.33325 19.9792C3.33325 17.6787 3.77075 15.5167 4.64575 13.4934C5.52075 11.4701 6.7152 9.70837 8.22908 8.20837C9.74297 6.70837 11.5116 5.52087 13.535 4.64587C15.5583 3.77087 17.7202 3.33337 20.0208 3.33337C22.3213 3.33337 24.4832 3.77087 26.5065 4.64587C28.5299 5.52087 30.2916 6.70837 31.7916 8.20837C33.2916 9.70837 34.4791 11.4723 35.3541 13.5C36.2291 15.5278 36.6666 17.6908 36.6666 19.989C36.6666 22.2871 36.2291 24.4468 35.3541 26.4681C34.4791 28.4894 33.2916 30.2544 31.7916 31.7632C30.2916 33.272 28.5277 34.4664 26.4999 35.3465C24.4721 36.2267 22.3092 36.6667 20.011 36.6667ZM20.0208 34.1667C23.9513 34.1667 27.2916 32.7848 30.0416 30.0209C32.7916 27.257 34.1666 23.9098 34.1666 19.9792C34.1666 16.0487 32.7942 12.7084 30.0494 9.95837C27.3046 7.20837 23.9548 5.83337 19.9999 5.83337C16.0833 5.83337 12.743 7.20576 9.97908 9.95054C7.2152 12.6953 5.83325 16.0452 5.83325 20C5.83325 23.9167 7.2152 27.257 9.97908 30.0209C12.743 32.7848 16.0902 34.1667 20.0208 34.1667Z" />
</svg>
