<svg viewBox="0 0 32 32" xmlns="http://www.w3.org/2000/svg">
<mask id="mask0_56_212" style="mask-type:alpha" maskUnits="userSpaceOnUse" x="0" y="0" width="32" height="32">
<rect width="32" height="32" />
</mask>
<g mask="url(#mask0_56_212)">
<path d="M17.4667 30.6667C15.6 30.6667 13.85 30.3111 12.2167 29.6C10.5833 28.8889 9.16111 27.9278 7.95 26.7167C6.73889 25.5056 5.77778 24.0833 5.06667 22.45C4.35556 20.8167 4 19.0667 4 17.2C4 13.9556 5.03333 11.0944 7.1 8.61667C9.16667 6.13889 11.8 4.6 15 4C14.6 6.2 14.7222 8.35 15.3667 10.45C16.0111 12.55 17.1222 14.3889 18.7 15.9667C20.2778 17.5444 22.1167 18.6556 24.2167 19.3C26.3167 19.9444 28.4667 20.0667 30.6667 19.6667C30.0889 22.8667 28.5556 25.5 26.0667 27.5667C23.5778 29.6333 20.7111 30.6667 17.4667 30.6667ZM17.4667 28C19.4222 28 21.2333 27.5111 22.9 26.5333C24.5667 25.5556 25.8778 24.2111 26.8333 22.5C24.9222 22.3222 23.1111 21.8389 21.4 21.05C19.6889 20.2611 18.1556 19.1889 16.8 17.8333C15.4444 16.4778 14.3667 14.9444 13.5667 13.2333C12.7667 11.5222 12.2889 9.71111 12.1333 7.8C10.4222 8.75556 9.08333 10.0722 8.11667 11.75C7.15 13.4278 6.66667 15.2444 6.66667 17.2C6.66667 20.2 7.71667 22.75 9.81667 24.85C11.9167 26.95 14.4667 28 17.4667 28Z" />
</g>
</svg>
