<svg  viewBox="0 0 12 12" xmlns="http://www.w3.org/2000/svg">
<path d="M1.88672 12V9.42C1.28926 8.9 0.825438 8.2925 0.495263 7.5975C0.165088 6.9025 0 6.17 0 5.4C0 3.9 0.550292 2.625 1.65088 1.575C2.75146 0.525 4.08789 0 5.66015 0C6.97037 0 8.13122 0.3675 9.14271 1.1025C10.1542 1.8375 10.8119 2.795 11.1159 3.975L11.9806 7.245C12.0226 7.385 11.9964 7.5125 11.902 7.6275C11.8077 7.7425 11.6819 7.8 11.5247 7.8H10.0625V9.9C10.0625 10.1475 9.97012 10.3594 9.78538 10.5356C9.60063 10.7119 9.37855 10.8 9.11913 10.8H7.54687V12H6.60351V9.9H9.11913V6.9H10.9115L10.204 4.2C9.95243 3.23 9.40214 2.4375 8.55311 1.8225C7.70409 1.2075 6.73977 0.9 5.66015 0.9C4.34993 0.9 3.23624 1.3325 2.31909 2.1975C1.40194 3.0625 0.943358 4.1177 0.943358 5.3631C0.943358 6.00727 1.08132 6.61923 1.35724 7.19898C1.63317 7.77874 2.02454 8.29408 2.53134 8.745L2.83007 9.015V12H1.88672ZM3.99355 12H4.93691L5.3457 8.25H7.38964V7.35H5.44003L5.52987 6.52221C5.55383 6.33407 5.63904 6.175 5.78551 6.045C5.93197 5.915 6.10506 5.85 6.30478 5.85H8.64745V4.95H6.3205C5.86891 4.95 5.47978 5.09208 5.15309 5.37625C4.82641 5.66041 4.63905 6.01333 4.59101 6.435L3.99355 12Z" />
</svg>
