<svg viewBox="0 0 48 48" fill="none" xmlns="http://www.w3.org/2000/svg">
<mask id="mask0_56_122" style="mask-type:alpha" maskUnits="userSpaceOnUse" x="0" y="0" width="48" height="48">
<rect width="48" height="48" />
</mask>
<g mask="url(#mask0_56_122)">
<path d="M23.75 40C23.8833 40 24.0166 39.9667 24.15 39.9C24.2833 39.8333 24.3833 39.7667 24.45 39.7L40.85 23.3C41.25 22.9 41.5416 22.45 41.725 21.95C41.9083 21.45 42 20.95 42 20.45C42 19.9167 41.9083 19.4083 41.725 18.925C41.5416 18.4417 41.25 18.0167 40.85 17.65L32.35 9.15C31.9833 8.75 31.5583 8.45833 31.075 8.275C30.5916 8.09167 30.0833 8 29.55 8C29.05 8 28.55 8.09167 28.05 8.275C27.55 8.45833 27.1 8.75 26.7 9.15L26.15 9.7L29.85 13.45C30.35 13.9167 30.7166 14.45 30.95 15.05C31.1833 15.65 31.3 16.2833 31.3 16.95C31.3 18.35 30.825 19.525 29.875 20.475C28.925 21.425 27.75 21.9 26.35 21.9C25.6833 21.9 25.0416 21.7833 24.425 21.55C23.8083 21.3167 23.2666 20.9667 22.8 20.5L19.05 16.8L10.3 25.55C10.2 25.65 10.125 25.7583 10.075 25.875C10.025 25.9917 9.99998 26.1167 9.99998 26.25C9.99998 26.5167 10.1 26.7583 10.3 26.975C10.5 27.1917 10.7333 27.3 11 27.3C11.1333 27.3 11.2666 27.2667 11.4 27.2C11.5333 27.1333 11.6333 27.0667 11.7 27L18.5 20.2L21.3 23L14.55 29.8C14.45 29.9 14.375 30.0083 14.325 30.125C14.275 30.2417 14.25 30.3667 14.25 30.5C14.25 30.7667 14.35 31 14.55 31.2C14.75 31.4 14.9833 31.5 15.25 31.5C15.3833 31.5 15.5166 31.4667 15.65 31.4C15.7833 31.3333 15.8833 31.2667 15.95 31.2L22.75 24.45L25.55 27.25L18.8 34.05C18.7 34.1167 18.625 34.2167 18.575 34.35C18.525 34.4833 18.5 34.6167 18.5 34.75C18.5 35.0167 18.6 35.25 18.8 35.45C19 35.65 19.2333 35.75 19.5 35.75C19.6333 35.75 19.7583 35.725 19.875 35.675C19.9916 35.625 20.1 35.55 20.2 35.45L27 28.7L29.8 31.5L23 38.3C22.9 38.4 22.825 38.5083 22.775 38.625C22.725 38.7417 22.7 38.8667 22.7 39C22.7 39.2667 22.8083 39.5 23.025 39.7C23.2416 39.9 23.4833 40 23.75 40ZM23.7 44C22.4666 44 21.375 43.5917 20.425 42.775C19.475 41.9583 18.9166 40.9333 18.75 39.7C17.6166 39.5333 16.6666 39.0667 15.9 38.3C15.1333 37.5333 14.6666 36.5833 14.5 35.45C13.3666 35.2833 12.425 34.8083 11.675 34.025C10.925 33.2417 10.4666 32.3 10.3 31.2C9.03331 31.0333 7.99998 30.4833 7.19998 29.55C6.39998 28.6167 5.99998 27.5167 5.99998 26.25C5.99998 25.5833 6.12498 24.9417 6.37498 24.325C6.62498 23.7083 6.98331 23.1667 7.44998 22.7L19.05 11.15L25.6 17.7C25.6666 17.8 25.7666 17.875 25.9 17.925C26.0333 17.975 26.1666 18 26.3 18C26.6 18 26.85 17.9083 27.05 17.725C27.25 17.5417 27.35 17.3 27.35 17C27.35 16.8667 27.325 16.7333 27.275 16.6C27.225 16.4667 27.15 16.3667 27.05 16.3L19.9 9.15C19.5333 8.75 19.1083 8.45833 18.625 8.275C18.1416 8.09167 17.6333 8 17.1 8C16.6 8 16.1 8.09167 15.6 8.275C15.1 8.45833 14.65 8.75 14.25 9.15L7.19998 16.25C6.89998 16.55 6.64998 16.9 6.44998 17.3C6.24998 17.7 6.11665 18.1 6.04998 18.5C5.98331 18.9 5.98331 19.3083 6.04998 19.725C6.11665 20.1417 6.24998 20.5333 6.44998 20.9L3.54998 23.8C2.98331 23.0333 2.56665 22.1917 2.29998 21.275C2.03331 20.3583 1.93331 19.4333 1.99998 18.5C2.06665 17.5667 2.29998 16.6583 2.69998 15.775C3.09998 14.8917 3.64998 14.1 4.34998 13.4L11.4 6.35C12.2 5.58333 13.0916 5 14.075 4.6C15.0583 4.2 16.0666 4 17.1 4C18.1333 4 19.1416 4.2 20.125 4.6C21.1083 5 21.9833 5.58333 22.75 6.35L23.3 6.9L23.85 6.35C24.65 5.58333 25.5416 5 26.525 4.6C27.5083 4.2 28.5166 4 29.55 4C30.5833 4 31.5916 4.2 32.575 4.6C33.5583 5 34.4333 5.58333 35.2 6.35L43.65 14.8C44.4166 15.5667 45 16.45 45.4 17.45C45.8 18.45 46 19.4667 46 20.5C46 21.5333 45.8 22.5417 45.4 23.525C45 24.5083 44.4166 25.3833 43.65 26.15L27.25 42.5C26.7833 42.9667 26.2416 43.3333 25.625 43.6C25.0083 43.8667 24.3666 44 23.7 44Z" />
</g>
</svg>
