<svg viewBox="0 0 12 9" xmlns="http://www.w3.org/2000/svg">
<path d="M3.41836 9C2.98927 9 2.61502 8.86641 2.29559 8.59922C1.97616 8.33203 1.78784 7.9875 1.73063 7.56562C1.3683 7.37812 1.08224 7.11094 0.872467 6.76406C0.662694 6.41719 0.557807 6.0375 0.557807 5.625C0.557807 5.12813 0.703218 4.68516 0.994041 4.29609C1.28486 3.90703 1.67342 3.6375 2.15971 3.4875L1.12992 2.475L0.958284 2.64375C0.853397 2.74688 0.719905 2.79844 0.557807 2.79844C0.395709 2.79844 0.262217 2.74688 0.15733 2.64375C0.0524434 2.54063 0 2.40937 0 2.25C0 2.09063 0.0524434 1.95937 0.15733 1.85625L1.30155 0.73125C1.40644 0.628125 1.53993 0.576562 1.70203 0.576562C1.86412 0.576562 1.99762 0.628125 2.1025 0.73125C2.20739 0.834375 2.25983 0.965625 2.25983 1.125C2.25983 1.28437 2.20739 1.41563 2.1025 1.51875L1.93087 1.6875L2.73182 2.475L3.18951 1.15312C3.30393 0.80625 3.51132 0.527344 3.81168 0.316406C4.11204 0.105469 4.44815 0 4.82002 0H7.73778C8.10965 0 8.44577 0.105469 8.74613 0.316406C9.04648 0.527344 9.25387 0.80625 9.3683 1.15312L10.1406 3.43125C10.6841 3.53437 11.1299 3.79219 11.4779 4.20469C11.826 4.61719 12 5.09063 12 5.625C12 6.0375 11.8951 6.41719 11.6853 6.76406C11.4756 7.11094 11.1895 7.37812 10.8272 7.56562C10.77 7.9875 10.5816 8.33203 10.2622 8.59922C9.94279 8.86641 9.56853 9 9.13945 9C8.77712 9 8.45054 8.89687 8.15971 8.69062C7.86889 8.48437 7.6615 8.2125 7.53754 7.875H5.02026C4.89631 8.2125 4.68892 8.48437 4.39809 8.69062C4.10727 8.89687 3.78069 9 3.41836 9ZM3.6472 3.375H5.70679V1.125H4.82002C4.69607 1.125 4.58641 1.16016 4.49106 1.23047C4.39571 1.30078 4.3242 1.39688 4.27652 1.51875L3.6472 3.375ZM6.85101 3.375H8.91061L8.28129 1.51875C8.23361 1.39688 8.1621 1.30078 8.06675 1.23047C7.97139 1.16016 7.86174 1.125 7.73778 1.125H6.85101V3.375ZM5.02026 6.75H7.53754C7.6615 6.4125 7.86889 6.14063 8.15971 5.93438C8.45054 5.72813 8.77712 5.625 9.13945 5.625C9.42551 5.625 9.69249 5.69063 9.9404 5.82188C10.1883 5.95313 10.3981 6.13125 10.5697 6.35625C10.6555 6.25313 10.7247 6.13828 10.7771 6.01172C10.8296 5.88516 10.8558 5.75625 10.8558 5.625C10.8558 5.31562 10.7437 5.05078 10.5197 4.83047C10.2956 4.61016 10.0262 4.5 9.71156 4.5H2.84625C2.53159 4.5 2.26222 4.61016 2.03814 4.83047C1.81406 5.05078 1.70203 5.31562 1.70203 5.625C1.70203 5.75625 1.72825 5.88516 1.78069 6.01172C1.83313 6.13828 1.90226 6.25313 1.98808 6.35625C2.15971 6.13125 2.36949 5.95313 2.6174 5.82188C2.86532 5.69063 3.1323 5.625 3.41836 5.625C3.78069 5.625 4.10727 5.72813 4.39809 5.93438C4.68892 6.14063 4.89631 6.4125 5.02026 6.75ZM3.41836 7.875C3.58045 7.875 3.71633 7.82109 3.82598 7.71328C3.93564 7.60547 3.99046 7.47187 3.99046 7.3125C3.99046 7.15313 3.93564 7.01953 3.82598 6.91172C3.71633 6.80391 3.58045 6.75 3.41836 6.75C3.25626 6.75 3.12038 6.80391 3.01073 6.91172C2.90107 7.01953 2.84625 7.15313 2.84625 7.3125C2.84625 7.47187 2.90107 7.60547 3.01073 7.71328C3.12038 7.82109 3.25626 7.875 3.41836 7.875ZM9.13945 7.875C9.30155 7.875 9.43743 7.82109 9.54708 7.71328C9.65673 7.60547 9.71156 7.47187 9.71156 7.3125C9.71156 7.15313 9.65673 7.01953 9.54708 6.91172C9.43743 6.80391 9.30155 6.75 9.13945 6.75C8.97735 6.75 8.84148 6.80391 8.73182 6.91172C8.62217 7.01953 8.56734 7.15313 8.56734 7.3125C8.56734 7.47187 8.62217 7.60547 8.73182 7.71328C8.84148 7.82109 8.97735 7.875 9.13945 7.875Z" />
</svg>
