<svg viewBox="0 0 40 40" xmlns="http://www.w3.org/2000/svg">
<path d="M18.1818 37L13.6818 32.5702C11.0455 29.974 8.85606 27.751 7.11364 25.9013C5.37121 24.0515 3.9697 22.3802 2.90909 20.8873C1.84848 19.3945 1.09848 17.991 0.659091 16.6766C0.219697 15.3623 0 13.9587 0 12.4659C0 9.5452 0.916667 7.0707 2.75 5.04242C4.58333 3.01414 6.84849 2 9.54545 2C11.2727 2 12.8712 2.43 14.3409 3.28999C15.8106 4.14998 17.0909 5.40751 18.1818 7.06259C19.4545 5.31015 20.803 4.02828 22.2273 3.21697C23.6515 2.40566 25.1818 2 26.8182 2C29.2599 2 31.3097 2.89244 32.9676 4.67733C34.6256 6.46222 35.6364 8.62031 36 11.1516H33.3182C33.0455 9.36671 32.3409 7.88201 31.2045 6.6975C30.0682 5.51298 28.6061 4.92072 26.8182 4.92072C25.2727 4.92072 23.8333 5.42374 22.5 6.42976C21.1667 7.43579 20.0909 8.8637 19.2727 10.7135H17.0455C16.2576 8.89615 15.197 7.47636 13.8636 6.4541C12.5303 5.43185 11.0909 4.92072 9.54545 4.92072C7.54545 4.92072 5.90909 5.64279 4.63636 7.08693C3.36364 8.53106 2.72727 10.3241 2.72727 12.4659C2.72727 13.7316 2.96212 14.9648 3.43182 16.1655C3.90152 17.3662 4.718 18.7303 5.88127 20.2578C7.04455 21.7853 8.62788 23.5701 10.6313 25.6124C12.6347 27.6548 15.1515 30.1688 18.1818 33.1544C19.1515 32.2133 20.0682 31.337 20.9318 30.5257C21.7955 29.7144 22.6515 28.9193 23.5 28.1405L23.8015 28.4556L24.4545 29.1384L25.1076 29.8212L25.4091 30.1363C24.5909 30.9152 23.7424 31.7102 22.8636 32.5216C21.9848 33.3329 21.0455 34.2253 20.0455 35.1989L18.1818 37ZM31.3636 29.2601V22.9318H25.4545V20.0111H31.3636V13.6829H34.0909V20.0111H40V22.9318H34.0909V29.2601H31.3636Z" />
</svg>
