<svg viewBox="0 0 12 12" xmlns="http://www.w3.org/2000/svg">
<path d="M7.68539 9.62703C7.80524 9.62703 7.91011 9.58198 8 9.49187C8.08989 9.40175 8.13483 9.29662 8.13483 9.17647C8.13483 9.05632 8.08989 8.95119 8 8.86108C7.91011 8.77096 7.80524 8.72591 7.68539 8.72591C7.56554 8.72591 7.46067 8.77096 7.37079 8.86108C7.2809 8.95119 7.23596 9.05632 7.23596 9.17647C7.23596 9.29662 7.2809 9.40175 7.37079 9.49187C7.46067 9.58198 7.56554 9.62703 7.68539 9.62703ZM9.18352 9.62703C9.30337 9.62703 9.40824 9.58198 9.49813 9.49187C9.58801 9.40175 9.63296 9.29662 9.63296 9.17647C9.63296 9.05632 9.58801 8.95119 9.49813 8.86108C9.40824 8.77096 9.30337 8.72591 9.18352 8.72591C9.06367 8.72591 8.9588 8.77096 8.86891 8.86108C8.77903 8.95119 8.73408 9.05632 8.73408 9.17647C8.73408 9.29662 8.77903 9.40175 8.86891 9.49187C8.9588 9.58198 9.06367 9.62703 9.18352 9.62703ZM10.6816 9.62703C10.8015 9.62703 10.9064 9.58198 10.9963 9.49187C11.0861 9.40175 11.1311 9.29662 11.1311 9.17647C11.1311 9.05632 11.0861 8.95119 10.9963 8.86108C10.9064 8.77096 10.8015 8.72591 10.6816 8.72591C10.5618 8.72591 10.4569 8.77096 10.367 8.86108C10.2772 8.95119 10.2322 9.05632 10.2322 9.17647C10.2322 9.29662 10.2772 9.40175 10.367 9.49187C10.4569 9.58198 10.5618 9.62703 10.6816 9.62703ZM0.898876 10.8135C0.651685 10.8135 0.440075 10.7253 0.264045 10.5488C0.088015 10.3723 0 10.1602 0 9.91239V0.901126C0 0.653317 0.088015 0.441176 0.264045 0.264706C0.440075 0.0882353 0.651685 0 0.898876 0H9.88764C10.1348 0 10.3464 0.0882353 10.5225 0.264706C10.6985 0.441176 10.7865 0.653317 10.7865 0.901126V5.8423C10.6467 5.7622 10.4994 5.69712 10.3446 5.64706C10.1898 5.597 10.0375 5.55695 9.88764 5.52691V0.901126H0.898876V9.91239H5.52809C5.56804 10.0726 5.6131 10.2286 5.66327 10.3806C5.71342 10.5325 5.77323 10.6768 5.8427 10.8135H0.898876ZM0.898876 9.20651V9.91239V0.901126V5.52691V5.46683V9.20651ZM2.397 8.41051H5.55805C5.598 8.25031 5.64295 8.09512 5.69288 7.94493C5.74282 7.79474 5.80774 7.64956 5.88764 7.50939H2.397V8.41051ZM2.397 5.85732H7.55056C7.69039 5.78723 7.82522 5.72966 7.95506 5.68461C8.08489 5.63955 8.22971 5.597 8.38951 5.55695V4.9562H2.397V5.85732ZM2.397 3.30413H8.38951V2.403H2.397V3.30413ZM9.17603 12C8.402 12 7.74032 11.7222 7.19101 11.1665C6.6417 10.6108 6.36704 9.95244 6.36704 9.19149C6.36704 8.40616 6.64165 7.73674 7.19086 7.18322C7.74007 6.6297 8.40429 6.35294 9.18352 6.35294C9.95256 6.35294 10.6142 6.6297 11.1685 7.18322C11.7228 7.73674 12 8.40616 12 9.19149C12 9.95244 11.7228 10.6108 11.1685 11.1665C10.6142 11.7222 9.95006 12 9.17603 12Z" />
</svg>
