<svg viewBox="0 0 12 12" xmlns="http://www.w3.org/2000/svg">
<path d="M8.4 7.74684C7.9 7.74684 7.475 7.56962 7.125 7.21519C6.775 6.86076 6.6 6.43038 6.6 5.92405C6.6 5.41772 6.775 4.98734 7.125 4.63291C7.475 4.27848 7.9 4.10127 8.4 4.10127C8.9 4.10127 9.325 4.27848 9.675 4.63291C10.025 4.98734 10.2 5.41772 10.2 5.92405C10.2 6.43038 10.025 6.86076 9.675 7.21519C9.325 7.56962 8.9 7.74684 8.4 7.74684ZM8.4 6.83544C8.655 6.83544 8.86875 6.7481 9.04125 6.57342C9.21375 6.39873 9.3 6.18228 9.3 5.92405C9.3 5.66582 9.21375 5.44937 9.04125 5.27468C8.86875 5.1 8.655 5.01266 8.4 5.01266C8.145 5.01266 7.93125 5.1 7.75875 5.27468C7.58625 5.44937 7.5 5.66582 7.5 5.92405C7.5 6.18228 7.58625 6.39873 7.75875 6.57342C7.93125 6.7481 8.145 6.83544 8.4 6.83544ZM4.8 12V10.238C4.8 10.0253 4.85 9.82532 4.95 9.63797C5.05 9.45063 5.19 9.30127 5.37 9.18987C5.65 9.01772 5.94 8.86835 6.24 8.74177C6.54 8.61519 6.85 8.51139 7.17 8.43038L8.4 10.0405L9.63 8.43038C9.95 8.51139 10.2575 8.61519 10.5525 8.74177C10.8475 8.86835 11.135 9.01772 11.415 9.18987C11.595 9.30127 11.7375 9.45063 11.8425 9.63797C11.9475 9.82532 12 10.0253 12 10.238V12H4.8ZM5.7 11.0886H8.055L6.825 9.47848C6.625 9.55949 6.43 9.6481 6.24 9.7443C6.05 9.84051 5.87 9.9443 5.7 10.0557V11.0886ZM8.745 11.0886H11.1V10.0557C10.93 9.9443 10.7525 9.84051 10.5675 9.7443C10.3825 9.6481 10.19 9.55949 9.99 9.47848L8.745 11.0886ZM0.9 10.9367C0.6525 10.9367 0.440625 10.8475 0.264375 10.669C0.088125 10.4905 0 10.2759 0 10.0253V0.911392C0 0.660759 0.088125 0.446203 0.264375 0.267722C0.440625 0.0892405 0.6525 0 0.9 0H9.9C10.1475 0 10.3594 0.0892405 10.5356 0.267722C10.7119 0.446203 10.8 0.660759 10.8 0.911392V4.66329C10.69 4.46076 10.56 4.27342 10.41 4.10127C10.26 3.92911 10.09 3.77722 9.9 3.64557V0.911392H0.9V10.0253H3.9V10.9367H0.9ZM2.4 3.34177H7.515C7.655 3.29114 7.7992 3.25316 7.9476 3.22785C8.09601 3.20253 8.24681 3.18987 8.4 3.18987V2.43038H2.4V3.34177ZM2.4 5.92405H5.7C5.7 5.77215 5.7125 5.61772 5.7375 5.46076C5.7625 5.3038 5.8 5.15443 5.85 5.01266H2.4V5.92405ZM2.4 8.50633H4.77C4.94 8.37468 5.12 8.26582 5.31 8.17975C5.5 8.09367 5.695 8.01013 5.895 7.92911V7.59494H2.4V8.50633ZM0.9 10.0253V0.911392V3.64557V3.18987V10.0253Z" />
</svg>
