<svg viewBox="0 0 12 12" xmlns="http://www.w3.org/2000/svg">
<path d="M1.88672 12V9.42C1.28926 8.9 0.825438 8.2925 0.495263 7.5975C0.165088 6.9025 0 6.17 0 5.4C0 3.9 0.550292 2.625 1.65088 1.575C2.75146 0.525 4.08789 0 5.66015 0C6.97037 0 8.13122 0.3675 9.14271 1.1025C10.1542 1.8375 10.8119 2.795 11.1159 3.975L11.9806 7.245C12.0226 7.385 11.9964 7.5125 11.902 7.6275C11.8077 7.7425 11.6819 7.8 11.5247 7.8H10.0625V9.9C10.0625 10.1475 9.97012 10.3594 9.78538 10.5356C9.60063 10.7119 9.37855 10.8 9.11913 10.8H7.54687V12H6.60351V9.9H9.11913V6.9H10.9115L10.204 4.2C9.95243 3.23 9.40214 2.4375 8.55311 1.8225C7.70409 1.2075 6.73977 0.9 5.66015 0.9C4.34993 0.9 3.23624 1.3325 2.31909 2.1975C1.40194 3.0625 0.943358 4.1177 0.943358 5.3631C0.943358 6.00727 1.08132 6.61923 1.35724 7.19898C1.63317 7.77874 2.02454 8.29408 2.53134 8.745L2.83007 9.015V12H1.88672ZM5.66015 8.4C5.83834 8.4 5.9877 8.3425 6.10824 8.2275C6.22878 8.1125 6.28905 7.97 6.28905 7.8C6.28905 7.63 6.22878 7.4875 6.10824 7.3725C5.9877 7.2575 5.83834 7.2 5.66015 7.2C5.48196 7.2 5.33259 7.2575 5.21205 7.3725C5.09151 7.4875 5.03124 7.63 5.03124 7.8C5.03124 7.97 5.09151 8.1125 5.21205 8.2275C5.33259 8.3425 5.48196 8.4 5.66015 8.4ZM5.18847 6.48H6.14755C6.14755 6.23 6.18162 6.0275 6.24975 5.8725C6.31788 5.7175 6.45676 5.53 6.6664 5.31C6.85507 5.11 7.0385 4.9075 7.21669 4.7025C7.39488 4.4975 7.48397 4.23 7.48397 3.9C7.48397 3.48 7.31365 3.125 6.97299 2.835C6.63233 2.545 6.21044 2.4 5.70732 2.4C5.28805 2.4 4.90808 2.515 4.56743 2.745C4.22677 2.975 3.98831 3.275 3.85205 3.645L4.71679 3.99C4.79016 3.77 4.91856 3.5925 5.102 3.4575C5.28543 3.3225 5.4872 3.255 5.70732 3.255C5.93792 3.255 6.12921 3.315 6.28119 3.435C6.43318 3.555 6.50917 3.71 6.50917 3.9C6.50917 4.11 6.44366 4.2975 6.31264 4.4625C6.18162 4.6275 6.02701 4.795 5.84882 4.965C5.63919 5.175 5.47672 5.385 5.36142 5.595C5.24612 5.805 5.18847 6.1 5.18847 6.48Z" />
</svg>
