<svg viewBox="0 0 12 12" xmlns="http://www.w3.org/2000/svg">
<path d="M6.9 12C5.78 12 4.85 11.607 4.11 10.821C3.37 10.035 3 9.09637 3 8.00501V7.47935C2.15 7.36921 1.4375 6.99018 0.8625 6.34226C0.2875 5.69434 0 4.93194 0 4.05507V0.600751H1.8V0H2.7V2.10263H1.8V1.50188H0.9V4.05022C0.9 4.76434 1.1475 5.36921 1.6425 5.86483C2.1375 6.36045 2.74 6.60826 3.45 6.60826C4.16 6.60826 4.7625 6.36045 5.2575 5.86483C5.7525 5.36921 6 4.76434 6 4.05022V1.50188H5.1V2.10263H4.2V0H5.1V0.600751H6.9V4.05507C6.9 4.93194 6.6125 5.69434 6.0375 6.34226C5.4625 6.99018 4.75 7.36921 3.9 7.47935V8.00501C3.9 8.85607 4.1825 9.58448 4.7475 10.1902C5.3125 10.796 6.03 11.0989 6.9 11.0989C7.71 11.0989 8.4125 10.7977 9.0075 10.1955C9.6025 9.59319 9.9 8.86186 9.9 8.00148V6.84856C9.55 6.74844 9.2625 6.55319 9.0375 6.26283C8.8125 5.97247 8.7 5.63705 8.7 5.25657C8.7 4.79767 8.86059 4.40759 9.18177 4.08635C9.50294 3.76512 9.89294 3.60451 10.3518 3.60451C10.8106 3.60451 11.2 3.76512 11.52 4.08635C11.84 4.40759 12 4.79767 12 5.25657C12 5.63705 11.8875 5.97247 11.6625 6.26283C11.4375 6.55319 11.15 6.74844 10.8 6.84856V8.00501C10.8 9.11639 10.4175 10.0601 9.6525 10.836C8.8875 11.612 7.97 12 6.9 12ZM10.3474 6.00751C10.5591 6.00751 10.7375 5.93579 10.8825 5.79237C11.0275 5.64895 11.1 5.47122 11.1 5.2592C11.1 5.04718 11.0284 4.86859 10.8851 4.7234C10.7419 4.57822 10.5644 4.50563 10.3526 4.50563C10.1409 4.50563 9.9625 4.57735 9.8175 4.72078C9.6725 4.8642 9.6 5.04192 9.6 5.25394C9.6 5.46596 9.67162 5.64456 9.81487 5.78974C9.95811 5.93492 10.1356 6.00751 10.3474 6.00751Z" />
</svg>
