<svg viewBox="0 0 40 40" xmlns="http://www.w3.org/2000/svg">
<path d="M27.3 17.35C28.05 17.35 28.6875 17.0875 29.2125 16.5625C29.7375 16.0375 30 15.4 30 14.65C30 13.9 29.7375 13.2625 29.2125 12.7375C28.6875 12.2125 28.05 11.95 27.3 11.95C26.55 11.95 25.9125 12.2125 25.3875 12.7375C24.8625 13.2625 24.6 13.9 24.6 14.65C24.6 15.4 24.8625 16.0375 25.3875 16.5625C25.9125 17.0875 26.55 17.35 27.3 17.35ZM12.7 17.35C13.45 17.35 14.0875 17.0875 14.6125 16.5625C15.1375 16.0375 15.4 15.4 15.4 14.65C15.4 13.9 15.1375 13.2625 14.6125 12.7375C14.0875 12.2125 13.45 11.95 12.7 11.95C11.95 11.95 11.3125 12.2125 10.7875 12.7375C10.2625 13.2625 10 13.9 10 14.65C10 15.4 10.2625 16.0375 10.7875 16.5625C11.3125 17.0875 11.95 17.35 12.7 17.35ZM20.0087 23.15C17.7696 23.15 15.7417 23.775 13.925 25.025C12.1083 26.275 10.7667 27.9333 9.9 30H12.55C13.2833 28.6 14.3195 27.5167 15.6587 26.75C16.9978 25.9833 18.4561 25.6 20.0337 25.6C21.6112 25.6 23.0583 25.9917 24.375 26.775C25.6917 27.5583 26.7333 28.6333 27.5 30H30.1C29.2667 27.9 27.9362 26.2333 26.1087 25C24.2812 23.7667 22.2478 23.15 20.0087 23.15ZM20 40C17.2333 40 14.6333 39.475 12.2 38.425C9.76667 37.375 7.65 35.95 5.85 34.15C4.05 32.35 2.625 30.2333 1.575 27.8C0.525 25.3667 0 22.7667 0 20C0 17.2333 0.525 14.6333 1.575 12.2C2.625 9.76667 4.05 7.65 5.85 5.85C7.65 4.05 9.76667 2.625 12.2 1.575C14.6333 0.525 17.2333 0 20 0C22.7667 0 25.3667 0.525 27.8 1.575C30.2333 2.625 32.35 4.05 34.15 5.85C35.95 7.65 37.375 9.76667 38.425 12.2C39.475 14.6333 40 17.2333 40 20C40 22.7667 39.475 25.3667 38.425 27.8C37.375 30.2333 35.95 32.35 34.15 34.15C32.35 35.95 30.2333 37.375 27.8 38.425C25.3667 39.475 22.7667 40 20 40ZM20 37C24.7458 37 28.7656 35.3531 32.0594 32.0594C35.3531 28.7656 37 24.7458 37 20C37 15.2542 35.3531 11.2344 32.0594 7.9406C28.7656 4.64687 24.7458 3 20 3C15.2542 3 11.2344 4.64687 7.9406 7.9406C4.64687 11.2344 3 15.2542 3 20C3 24.7458 4.64687 28.7656 7.9406 32.0594C11.2344 35.3531 15.2542 37 20 37Z" />
</svg>
