<svg viewBox="0 0 40 40" xmlns="http://www.w3.org/2000/svg">
<path d="M27.3 17.35C28.05 17.35 28.6875 17.0875 29.2125 16.5625C29.7375 16.0375 30 15.4 30 14.65C30 13.9 29.7375 13.2625 29.2125 12.7375C28.6875 12.2125 28.05 11.95 27.3 11.95C26.55 11.95 25.9125 12.2125 25.3875 12.7375C24.8625 13.2625 24.6 13.9 24.6 14.65C24.6 15.4 24.8625 16.0375 25.3875 16.5625C25.9125 17.0875 26.55 17.35 27.3 17.35ZM12.7 17.35C13.45 17.35 14.0875 17.0875 14.6125 16.5625C15.1375 16.0375 15.4 15.4 15.4 14.65C15.4 13.9 15.1375 13.2625 14.6125 12.7375C14.0875 12.2125 13.45 11.95 12.7 11.95C11.95 11.95 11.3125 12.2125 10.7875 12.7375C10.2625 13.2625 10 13.9 10 14.65C10 15.4 10.2625 16.0375 10.7875 16.5625C11.3125 17.0875 11.95 17.35 12.7 17.35ZM20 30.95C22.2 30.95 24.225 30.3583 26.075 29.175C27.925 27.9917 29.2667 26.3833 30.1 24.35H27.5C26.7333 25.6833 25.6833 26.7083 24.35 27.425C23.0167 28.1417 21.575 28.5 20.025 28.5C18.475 28.5 17.025 28.15 15.675 27.45C14.325 26.75 13.2833 25.7167 12.55 24.35H9.9C10.7667 26.3833 12.1167 27.9917 13.95 29.175C15.7833 30.3583 17.8 30.95 20 30.95ZM20 40C17.2333 40 14.6333 39.475 12.2 38.425C9.76667 37.375 7.65 35.95 5.85 34.15C4.05 32.35 2.625 30.2333 1.575 27.8C0.525 25.3667 0 22.7667 0 20C0 17.2333 0.525 14.6333 1.575 12.2C2.625 9.76667 4.05 7.65 5.85 5.85C7.65 4.05 9.76667 2.625 12.2 1.575C14.6333 0.525 17.2333 0 20 0C22.7667 0 25.3667 0.525 27.8 1.575C30.2333 2.625 32.35 4.05 34.15 5.85C35.95 7.65 37.375 9.76667 38.425 12.2C39.475 14.6333 40 17.2333 40 20C40 22.7667 39.475 25.3667 38.425 27.8C37.375 30.2333 35.95 32.35 34.15 34.15C32.35 35.95 30.2333 37.375 27.8 38.425C25.3667 39.475 22.7667 40 20 40ZM20 37C24.7458 37 28.7656 35.3531 32.0594 32.0594C35.3531 28.7656 37 24.7458 37 20C37 15.2542 35.3531 11.2344 32.0594 7.9406C28.7656 4.64687 24.7458 3 20 3C15.2542 3 11.2344 4.64687 7.9406 7.9406C4.64687 11.2344 3 15.2542 3 20C3 24.7458 4.64687 28.7656 7.9406 32.0594C11.2344 35.3531 15.2542 37 20 37Z" />
</svg>
