<svg viewBox="0 0 12 12"  xmlns="http://www.w3.org/2000/svg">
<path d="M4.37907 8.69024C3.15517 8.69024 2.11935 8.26591 1.27161 7.41726C0.42387 6.5686 0 5.54455 0 4.34512C0 3.14569 0.424328 2.12164 1.27298 1.27298C2.12164 0.424328 3.14852 0 4.35361 0C5.5587 0 6.58274 0.424328 7.42574 1.27298C8.26874 2.12164 8.69024 3.14654 8.69024 4.34767C8.69024 4.83253 8.61103 5.30127 8.45262 5.75389C8.2942 6.20651 8.05658 6.63083 7.73975 7.02687L11.8472 11.1004C11.9491 11.1972 12 11.3205 12 11.4701C12 11.6197 11.9491 11.7454 11.8472 11.8472C11.7454 11.9491 11.6197 12 11.4701 12C11.3205 12 11.1972 11.9491 11.1004 11.8472L7.0099 7.75672C6.67044 8.05092 6.27463 8.28006 5.82248 8.44413C5.37033 8.6082 4.88919 8.69024 4.37907 8.69024ZM4.36209 7.67185C5.28147 7.67185 6.06294 7.34654 6.70651 6.6959C7.35007 6.04526 7.67185 5.26167 7.67185 4.34512C7.67185 3.42857 7.35007 2.64498 6.70651 1.99434C6.06294 1.34371 5.28147 1.01839 4.36209 1.01839C3.43329 1.01839 2.6438 1.34371 1.99363 1.99434C1.34347 2.64498 1.01839 3.42857 1.01839 4.34512C1.01839 5.26167 1.34347 6.04526 1.99363 6.6959C2.6438 7.34654 3.43329 7.67185 4.36209 7.67185Z" />
</svg>
