<svg viewBox="0 0 48 48" xmlns="http://www.w3.org/2000/svg">
<mask id="mask0_56_134" style="mask-type:alpha" maskUnits="userSpaceOnUse" x="0" y="0" width="48" height="48">
<rect width="48" height="48" />
</mask>
<g mask="url(#mask0_56_134)">
<path d="M4 44V40C5.53333 40 7.05 39.9 8.55 39.7C10.05 39.5 11.5167 39.1333 12.95 38.6C11.4167 37.8333 10.2083 36.725 9.325 35.275C8.44167 33.825 8 32.25 8 30.55V26H16V20H22.75L16.2 6.90001L19.8 5.10001L26.35 18.2C27.0167 19.5333 26.9667 20.8333 26.2 22.1C25.4333 23.3667 24.3 24 22.8 24H20V26C20 27.1 19.6083 28.0417 18.825 28.825C18.0417 29.6083 17.1 30 16 30H12V30.55C12 31.7167 12.3583 32.7417 13.075 33.625C13.7917 34.5083 14.7 35.1 15.8 35.4L16.4 35.55C17.7333 35.8833 18.4833 36.7167 18.65 38.05C18.8167 39.3833 18.3 40.3833 17.1 41.05C15.1 42.15 12.9917 42.9167 10.775 43.35C8.55833 43.7833 6.3 44 4 44ZM32.6 38.3L29.75 35.5C30.45 34.8 31 33.9917 31.4 33.075C31.8 32.1583 32 31.1667 32 30.1C32 29.0333 31.8 28.0417 31.4 27.125C31 26.2083 30.45 25.4 29.75 24.7L32.6 21.85C33.6667 22.9167 34.5 24.1583 35.1 25.575C35.7 26.9917 36 28.5 36 30.1C36 31.7 35.7 33.2 35.1 34.6C34.5 36 33.6667 37.2333 32.6 38.3ZM38.25 44L35.4 41.15C36.8333 39.7167 37.9583 38.0583 38.775 36.175C39.5917 34.2917 40 32.2667 40 30.1C40 27.9 39.5917 25.8667 38.775 24C37.9583 22.1333 36.8333 20.4833 35.4 19.05L38.25 16.2C40.05 18 41.4583 20.0833 42.475 22.45C43.4917 24.8167 44 27.3667 44 30.1C44 32.8 43.4917 35.3417 42.475 37.725C41.4583 40.1083 40.05 42.2 38.25 44Z" />
</g>
</svg>
