<svg viewBox="0 0 12 10" xmlns="http://www.w3.org/2000/svg">
<path d="M10.3773 7.55614L9.69545 6.89564C10.1318 6.4465 10.4659 5.98635 10.6977 5.51519C10.9295 5.04403 11.0455 4.46499 11.0455 3.77807C11.0455 3.09115 10.9295 2.51211 10.6977 2.04095C10.4659 1.56979 10.1318 1.10964 9.69545 0.660502L10.3773 0C10.8864 0.510788 11.2841 1.06781 11.5705 1.67107C11.8568 2.27433 12 2.97666 12 3.77807C12 4.57948 11.8568 5.28181 11.5705 5.88507C11.2841 6.48833 10.8864 7.04535 10.3773 7.55614ZM8.48182 5.68032L7.8 5.01982C7.96364 4.84368 8.09091 4.65654 8.18182 4.45839C8.27273 4.26024 8.31818 4.03347 8.31818 3.77807C8.31818 3.52268 8.27273 3.2959 8.18182 3.09775C8.09091 2.8996 7.96364 2.71246 7.8 2.53633L8.48182 1.87583C8.71818 2.12241 8.90909 2.41083 9.05455 2.74108C9.2 3.07133 9.27273 3.417 9.27273 3.77807C9.27273 4.13915 9.2 4.48481 9.05455 4.81506C8.90909 5.14531 8.71818 5.43373 8.48182 5.68032ZM4.36364 5.75958C3.76364 5.75958 3.27273 5.57464 2.89091 5.20476C2.50909 4.83487 2.31818 4.35931 2.31818 3.77807C2.31818 3.19683 2.50909 2.72127 2.89091 2.35139C3.27273 1.98151 3.76364 1.79657 4.36364 1.79657C4.96364 1.79657 5.45455 1.98151 5.83636 2.35139C6.21818 2.72127 6.40909 3.19683 6.40909 3.77807C6.40909 4.35931 6.21818 4.83487 5.83636 5.20476C5.45455 5.57464 4.96364 5.75958 4.36364 5.75958ZM0 10V8.75826C0 8.4236 0.0863636 8.13959 0.259091 7.90621C0.431818 7.67283 0.654545 7.49009 0.927273 7.35799C1.39091 7.12902 1.93864 6.93967 2.57045 6.78996C3.20227 6.64025 3.8 6.56539 4.36364 6.56539C4.92727 6.56539 5.52273 6.64025 6.15 6.78996C6.77727 6.93967 7.32273 7.12902 7.78636 7.35799C8.05909 7.49009 8.28409 7.67283 8.46136 7.90621C8.63864 8.13959 8.72727 8.4236 8.72727 8.75826V10H0ZM0.818182 9.2074H7.90909V8.75826C7.90909 8.61735 7.87045 8.48745 7.79318 8.36856C7.71591 8.24967 7.60455 8.15059 7.45909 8.07133C7.02273 7.83355 6.52727 7.65522 5.97273 7.53633C5.41818 7.41744 4.88182 7.35799 4.36364 7.35799C3.84545 7.35799 3.30682 7.42184 2.74773 7.54954C2.18864 7.67723 1.69091 7.85117 1.25455 8.07133C1.12727 8.13298 1.02273 8.22765 0.940909 8.35535C0.859091 8.48305 0.818182 8.61735 0.818182 8.75826V9.2074ZM4.36364 4.96697C4.71818 4.96697 5.01136 4.85469 5.24318 4.63012C5.475 4.40555 5.59091 4.12153 5.59091 3.77807C5.59091 3.43461 5.475 3.15059 5.24318 2.92602C5.01136 2.70145 4.71818 2.58917 4.36364 2.58917C4.00909 2.58917 3.71591 2.70145 3.48409 2.92602C3.25227 3.15059 3.13636 3.43461 3.13636 3.77807C3.13636 4.12153 3.25227 4.40555 3.48409 4.63012C3.71591 4.85469 4.00909 4.96697 4.36364 4.96697Z" />
</svg>
