<svg viewBox="0 0 40 40" xmlns="http://www.w3.org/2000/svg">
<path d="M10.9 21.2L18.05 16L10.9 10.8L9.1 13.2L12.95 16L9.1 18.8L10.9 21.2ZM29.1 21.2L30.9 18.8L27.05 16L30.9 13.2L29.1 10.8L21.95 16L29.1 21.2ZM17 30.1L20 27.1L23 30.1L26 27.1L27.95 29.05L30.05 26.95L26 22.9L23 25.9L20 22.9L17 25.9L14 22.9L9.95 26.95L12.05 29.05L14 27.1L17 30.1ZM20 40C17.2333 40 14.6333 39.475 12.2 38.425C9.76667 37.375 7.65 35.95 5.85 34.15C4.05 32.35 2.625 30.2333 1.575 27.8C0.525 25.3667 0 22.7667 0 20C0 17.2333 0.525 14.6333 1.575 12.2C2.625 9.76667 4.05 7.65 5.85 5.85C7.65 4.05 9.76667 2.625 12.2 1.575C14.6333 0.525 17.2333 0 20 0C22.7667 0 25.3667 0.525 27.8 1.575C30.2333 2.625 32.35 4.05 34.15 5.85C35.95 7.65 37.375 9.76667 38.425 12.2C39.475 14.6333 40 17.2333 40 20C40 22.7667 39.475 25.3667 38.425 27.8C37.375 30.2333 35.95 32.35 34.15 34.15C32.35 35.95 30.2333 37.375 27.8 38.425C25.3667 39.475 22.7667 40 20 40ZM20 37C24.7458 37 28.7656 35.3531 32.0594 32.0594C35.3531 28.7656 37 24.7458 37 20C37 15.2542 35.3531 11.2344 32.0594 7.9406C28.7656 4.64687 24.7458 3 20 3C15.2542 3 11.2344 4.64687 7.9406 7.9406C4.64687 11.2344 3 15.2542 3 20C3 24.7458 4.64687 28.7656 7.9406 32.0594C11.2344 35.3531 15.2542 37 20 37Z" />
</svg>
