<svg viewBox="0 0 12 9" xmlns="http://www.w3.org/2000/svg">
<path d="M7.09091 3.17812V2.50312C7.39091 2.37188 7.69773 2.27344 8.01136 2.20781C8.325 2.14219 8.65455 2.10938 9 2.10938C9.23636 2.10938 9.46818 2.12812 9.69545 2.16562C9.92273 2.20312 10.1455 2.25 10.3636 2.30625V2.925C10.1455 2.84062 9.925 2.77734 9.70227 2.73516C9.47955 2.69297 9.24545 2.67188 9 2.67188C8.65455 2.67188 8.32273 2.71641 8.00455 2.80547C7.68636 2.89453 7.38182 3.01875 7.09091 3.17812ZM7.09091 6.27187V5.58281C7.39091 5.45625 7.69773 5.36133 8.01136 5.29805C8.325 5.23477 8.65455 5.20312 9 5.20312C9.23636 5.20312 9.46818 5.22187 9.69545 5.25938C9.92273 5.29688 10.1455 5.34375 10.3636 5.4V6.01875C10.1455 5.93437 9.925 5.87109 9.70227 5.82891C9.47955 5.78672 9.24545 5.76562 9 5.76562C8.65455 5.76562 8.32273 5.80781 8.00455 5.89219C7.68636 5.97656 7.38182 6.10312 7.09091 6.27187ZM7.09091 4.725V4.05C7.39091 3.91875 7.69773 3.82031 8.01136 3.75469C8.325 3.68906 8.65455 3.65625 9 3.65625C9.23636 3.65625 9.46818 3.675 9.69545 3.7125C9.92273 3.75 10.1455 3.79688 10.3636 3.85312V4.47187C10.1455 4.3875 9.925 4.32422 9.70227 4.28203C9.47955 4.23984 9.24545 4.21875 9 4.21875C8.65455 4.21875 8.32273 4.26328 8.00455 4.35234C7.68636 4.44141 7.38182 4.56562 7.09091 4.725ZM2.83636 7.03125C3.32333 7.03125 3.79734 7.08984 4.2584 7.20703C4.71947 7.32422 5.17273 7.5 5.61818 7.73438V1.72969C5.20909 1.44844 4.76537 1.23047 4.28701 1.07578C3.80867 0.921094 3.32512 0.84375 2.83636 0.84375C2.49091 0.84375 2.15227 0.888281 1.82045 0.977344C1.48864 1.06641 1.15455 1.17656 0.818182 1.30781V7.41094C1.1 7.27969 1.42045 7.18359 1.77955 7.12266C2.13864 7.06172 2.49091 7.03125 2.83636 7.03125ZM6.43636 7.73438C6.89091 7.5 7.33636 7.32422 7.77273 7.20703C8.20909 7.08984 8.67273 7.03125 9.16364 7.03125C9.50909 7.03125 9.86591 7.05937 10.2341 7.11562C10.6023 7.17188 10.9182 7.24687 11.1818 7.34062V1.30781C10.8727 1.14844 10.5463 1.03125 10.2024 0.95625C9.85858 0.88125 9.51232 0.84375 9.16364 0.84375C8.67273 0.84375 8.19773 0.921094 7.73864 1.07578C7.27955 1.23047 6.84545 1.44844 6.43636 1.72969V7.73438ZM6.02727 9C5.56364 8.64375 5.05909 8.36953 4.51364 8.17734C3.96818 7.98516 3.40909 7.88906 2.83636 7.88906C2.50421 7.88906 2.17799 7.93125 1.85771 8.01562C1.53742 8.1 1.21818 8.20312 0.9 8.325C0.69 8.42812 0.4875 8.41406 0.2925 8.28281C0.0975 8.15156 0 7.96406 0 7.72031V1.20938C0 1.06875 0.0318182 0.939844 0.0954545 0.822656C0.159091 0.705469 0.254545 0.614062 0.381818 0.548437C0.763636 0.360938 1.16089 0.222656 1.57357 0.133594C1.98624 0.0445312 2.40717 0 2.83636 0C3.40909 0 3.96591 0.0796875 4.50682 0.239062C5.04773 0.398437 5.55455 0.642187 6.02727 0.970312C6.49091 0.642187 6.98864 0.398437 7.52045 0.239062C8.05227 0.0796875 8.6 0 9.16364 0C9.58971 0 10.0076 0.0445312 10.4173 0.133594C10.827 0.222656 11.2227 0.360938 11.6045 0.548437C11.7318 0.614062 11.8295 0.705469 11.8977 0.822656C11.9659 0.939844 12 1.06875 12 1.20938V7.72031C12 7.98182 11.8977 8.18079 11.6932 8.31722C11.4886 8.45366 11.2864 8.45625 11.0864 8.325C10.7773 8.19375 10.4626 8.08828 10.1423 8.00859C9.82201 7.92891 9.49579 7.88906 9.16364 7.88906C8.59091 7.88906 8.04091 7.9875 7.51364 8.18437C6.98636 8.38125 6.49091 8.65312 6.02727 9Z" />
</svg>
