<svg viewBox="0 0 40 40" xmlns="http://www.w3.org/2000/svg">
<path d="M18.3333 35V32.5H32.4999V19.8333C32.4999 16.3976 31.2871 13.4831 28.8615 11.0899C26.4359 8.69662 23.4821 7.5 19.9999 7.5C16.5178 7.5 13.5639 8.69662 11.1383 11.0899C8.71271 13.4831 7.49992 16.3976 7.49992 19.8333V30H6.66658C5.74992 30 4.9652 29.6736 4.31242 29.0208C3.65964 28.3681 3.33325 27.5833 3.33325 26.6667V23.3333C3.33325 22.75 3.47909 22.2014 3.77075 21.6875C4.06242 21.1736 4.47214 20.7639 4.99992 20.4583L5.12492 18.25C5.34714 16.3611 5.89575 14.6111 6.77075 13C7.64575 11.3889 8.74297 9.98611 10.0624 8.79167C11.3819 7.59722 12.8958 6.66667 14.6041 6C16.3124 5.33333 18.111 5 19.9999 5C21.8888 5 23.6805 5.33333 25.3749 6C27.0694 6.66667 28.5833 7.59028 29.9166 8.77083C31.2499 9.95139 32.3471 11.3472 33.2083 12.9583C34.0694 14.5694 34.6249 16.3194 34.8749 18.2083L34.9999 20.375C35.5277 20.625 35.9374 21 36.2291 21.5C36.5207 22 36.6666 22.5278 36.6666 23.0833V26.9167C36.6666 27.4722 36.5207 28 36.2291 28.5C35.9374 29 35.5277 29.375 34.9999 29.625V32.5C34.9999 33.1875 34.7551 33.776 34.2655 34.2656C33.776 34.7552 33.1874 35 32.4999 35H18.3333ZM14.9926 22.9167C14.6364 22.9167 14.3402 22.7962 14.1041 22.5552C13.868 22.3142 13.7499 22.0156 13.7499 21.6594C13.7499 21.3031 13.8704 21.0069 14.1114 20.7708C14.3524 20.5347 14.651 20.4167 15.0072 20.4167C15.3635 20.4167 15.6596 20.5372 15.8958 20.7781C16.1319 21.0191 16.2499 21.3177 16.2499 21.674C16.2499 22.0302 16.1294 22.3264 15.8885 22.5625C15.6475 22.7986 15.3488 22.9167 14.9926 22.9167ZM24.9926 22.9167C24.6364 22.9167 24.3402 22.7962 24.1041 22.5552C23.868 22.3142 23.7499 22.0156 23.7499 21.6594C23.7499 21.3031 23.8704 21.0069 24.1114 20.7708C24.3524 20.5347 24.651 20.4167 25.0072 20.4167C25.3635 20.4167 25.6596 20.5372 25.8958 20.7781C26.1319 21.0191 26.2499 21.3177 26.2499 21.674C26.2499 22.0302 26.1294 22.3264 25.8885 22.5625C25.6475 22.7986 25.3488 22.9167 24.9926 22.9167ZM10.0416 20.75C9.84714 17.8056 10.736 15.2778 12.7083 13.1667C14.6805 11.0556 17.1388 10 20.0833 10C22.4999 10 24.5971 10.7986 26.3749 12.3958C28.1527 13.9931 29.236 15.9861 29.6249 18.375C27.1527 18.3472 24.8958 17.6528 22.8541 16.2917C20.8124 14.9306 19.2321 13.1389 18.1132 10.9167C17.6766 13.1389 16.743 15.1181 15.3124 16.8542C13.8819 18.5903 12.1249 19.8889 10.0416 20.75Z"/>
</svg>
